<mxfile host="65bd71144e">
    <diagram id="57dPO9drGirFbhUNFfq3" name="Page-1">
        <mxGraphModel dx="1896" dy="1025" grid="1" gridSize="10" guides="1" tooltips="1" connect="1" arrows="1" fold="1" page="1" pageScale="1" pageWidth="850" pageHeight="1100" background="#ffffff" math="0" shadow="0">
            <root>
                <mxCell id="0"/>
                <mxCell id="1" parent="0"/>
                <mxCell id="34" style="edgeStyle=none;html=1;labelBackgroundColor=#18141D;labelBorderColor=#000000;strokeColor=#18141D;fontSize=16;fontColor=#000000;entryX=1.031;entryY=0.616;entryDx=0;entryDy=0;entryPerimeter=0;" edge="1" parent="1" source="3" target="5">
                    <mxGeometry relative="1" as="geometry">
                        <mxPoint x="620" y="640" as="targetPoint"/>
                    </mxGeometry>
                </mxCell>
                <mxCell id="35" value="Search" style="edgeLabel;html=1;align=center;verticalAlign=middle;resizable=0;points=[];fontSize=16;fontColor=#000000;labelBackgroundColor=none;" vertex="1" connectable="0" parent="34">
                    <mxGeometry x="-0.1476" y="4" relative="1" as="geometry">
                        <mxPoint x="-4" y="13" as="offset"/>
                    </mxGeometry>
                </mxCell>
                <mxCell id="48" style="edgeStyle=none;html=1;labelBackgroundColor=#18141D;labelBorderColor=#000000;strokeColor=#18141D;fontSize=16;fontColor=#000000;" edge="1" parent="1" source="3">
                    <mxGeometry relative="1" as="geometry">
                        <mxPoint x="600" y="490" as="targetPoint"/>
                    </mxGeometry>
                </mxCell>
                <mxCell id="49" value="Retrieve" style="edgeLabel;html=1;align=center;verticalAlign=middle;resizable=0;points=[];fontSize=16;fontColor=#000000;labelBackgroundColor=none;" vertex="1" connectable="0" parent="48">
                    <mxGeometry x="-0.1826" y="4" relative="1" as="geometry">
                        <mxPoint x="-40" as="offset"/>
                    </mxGeometry>
                </mxCell>
                <mxCell id="60" style="edgeStyle=none;html=1;entryX=1.026;entryY=0.396;entryDx=0;entryDy=0;labelBackgroundColor=#18141D;labelBorderColor=#000000;strokeColor=#18141D;fontSize=16;fontColor=#000000;entryPerimeter=0;" edge="1" parent="1" source="3" target="56">
                    <mxGeometry relative="1" as="geometry"/>
                </mxCell>
                <mxCell id="62" value="Natural language&lt;br&gt;progressing" style="edgeLabel;html=1;align=center;verticalAlign=middle;resizable=0;points=[];fontSize=16;fontColor=#000000;labelBackgroundColor=none;" vertex="1" connectable="0" parent="60">
                    <mxGeometry x="0.1572" y="-1" relative="1" as="geometry">
                        <mxPoint x="12" y="-20" as="offset"/>
                    </mxGeometry>
                </mxCell>
                <mxCell id="3" value="" style="aspect=fixed;html=1;points=[];align=center;image;fontSize=12;image=img/lib/azure2/other/Worker_Container_App.svg;" vertex="1" parent="1">
                    <mxGeometry x="740" y="590" width="103.03" height="100" as="geometry"/>
                </mxCell>
                <mxCell id="5" value="" style="aspect=fixed;html=1;points=[];align=center;image;fontSize=12;image=img/lib/azure2/app_services/Search_Services.svg;" vertex="1" parent="1">
                    <mxGeometry x="490" y="580" width="138.46" height="100" as="geometry"/>
                </mxCell>
                <mxCell id="21" style="edgeStyle=none;html=1;labelBackgroundColor=#18141D;labelBorderColor=#000000;strokeColor=#18141D;fontSize=16;fontColor=#000000;entryX=0;entryY=0.7;entryDx=0;entryDy=0;entryPerimeter=0;" edge="1" parent="1" source="6" target="7">
                    <mxGeometry relative="1" as="geometry">
                        <mxPoint x="270" y="530" as="targetPoint"/>
                    </mxGeometry>
                </mxCell>
                <mxCell id="23" value="Deploy" style="edgeLabel;html=1;align=center;verticalAlign=middle;resizable=0;points=[];fontSize=16;fontColor=#000000;labelBackgroundColor=none;" vertex="1" connectable="0" parent="21">
                    <mxGeometry x="-0.2088" y="2" relative="1" as="geometry">
                        <mxPoint x="13" y="20" as="offset"/>
                    </mxGeometry>
                </mxCell>
                <mxCell id="6" value="" style="dashed=0;outlineConnect=0;html=1;align=center;labelPosition=center;verticalLabelPosition=bottom;verticalAlign=top;shape=mxgraph.weblogos.github" vertex="1" parent="1">
                    <mxGeometry x="60" y="558" width="100" height="100" as="geometry"/>
                </mxCell>
                <mxCell id="25" style="edgeStyle=none;html=1;entryX=-0.009;entryY=0.51;entryDx=0;entryDy=0;entryPerimeter=0;labelBackgroundColor=#18141D;labelBorderColor=#000000;strokeColor=#18141D;fontSize=16;fontColor=#000000;" edge="1" parent="1" source="7" target="5">
                    <mxGeometry relative="1" as="geometry"/>
                </mxCell>
                <mxCell id="33" value="Index &amp;amp; Embed" style="edgeLabel;html=1;align=center;verticalAlign=middle;resizable=0;points=[];fontSize=16;fontColor=#000000;labelBackgroundColor=none;" vertex="1" connectable="0" parent="25">
                    <mxGeometry x="-0.2024" y="2" relative="1" as="geometry">
                        <mxPoint x="-25" y="41" as="offset"/>
                    </mxGeometry>
                </mxCell>
                <mxCell id="26" style="edgeStyle=none;html=1;entryX=0.005;entryY=0.55;entryDx=0;entryDy=0;entryPerimeter=0;labelBackgroundColor=#18141D;labelBorderColor=#000000;strokeColor=#18141D;fontSize=16;fontColor=#000000;" edge="1" parent="1" source="7" target="19">
                    <mxGeometry relative="1" as="geometry"/>
                </mxCell>
                <mxCell id="31" value="Publish" style="edgeLabel;html=1;align=center;verticalAlign=middle;resizable=0;points=[];fontSize=16;fontColor=#000000;labelBackgroundColor=none;" vertex="1" connectable="0" parent="26">
                    <mxGeometry x="-0.2089" y="-4" relative="1" as="geometry">
                        <mxPoint x="-25" y="-26" as="offset"/>
                    </mxGeometry>
                </mxCell>
                <mxCell id="7" value="" style="sketch=0;aspect=fixed;html=1;points=[];align=center;image;fontSize=12;image=img/lib/mscae/Azure_Pipelines.svg;" vertex="1" parent="1">
                    <mxGeometry x="280" y="458" width="100" height="100" as="geometry"/>
                </mxCell>
                <mxCell id="9" value="" style="aspect=fixed;html=1;points=[];align=center;image;fontSize=12;image=img/lib/azure2/databases/Azure_Database_PostgreSQL_Server.svg;" vertex="1" parent="1">
                    <mxGeometry x="521.73" y="400" width="75" height="100" as="geometry"/>
                </mxCell>
                <mxCell id="20" style="edgeStyle=none;html=1;fontSize=16;fontColor=#000000;labelBackgroundColor=#18141D;labelBorderColor=#000000;strokeColor=#18141D;entryX=0.014;entryY=0.482;entryDx=0;entryDy=0;entryPerimeter=0;" edge="1" parent="1" source="10" target="7">
                    <mxGeometry relative="1" as="geometry">
                        <mxPoint x="280" y="520" as="targetPoint"/>
                    </mxGeometry>
                </mxCell>
                <mxCell id="24" value="Deploy" style="edgeLabel;html=1;align=center;verticalAlign=middle;resizable=0;points=[];fontSize=16;fontColor=#000000;labelBackgroundColor=none;" vertex="1" connectable="0" parent="20">
                    <mxGeometry x="-0.2872" y="3" relative="1" as="geometry">
                        <mxPoint x="15" y="-13" as="offset"/>
                    </mxGeometry>
                </mxCell>
                <mxCell id="10" value="" style="dashed=0;outlineConnect=0;html=1;align=center;labelPosition=center;verticalLabelPosition=bottom;verticalAlign=top;shape=mxgraph.weblogos.github" vertex="1" parent="1">
                    <mxGeometry x="60" y="390" width="100" height="100" as="geometry"/>
                </mxCell>
                <mxCell id="39" style="edgeStyle=none;html=1;labelBackgroundColor=#18141D;labelBorderColor=#000000;strokeColor=#18141D;fontSize=16;fontColor=#000000;exitX=-0.063;exitY=0.419;exitDx=0;exitDy=0;exitPerimeter=0;entryX=1.045;entryY=0.429;entryDx=0;entryDy=0;entryPerimeter=0;" edge="1" parent="1" source="11" target="9">
                    <mxGeometry relative="1" as="geometry">
                        <mxPoint x="620" y="430" as="targetPoint"/>
                    </mxGeometry>
                </mxCell>
                <mxCell id="40" value="CRUD Catalog" style="edgeLabel;html=1;align=center;verticalAlign=middle;resizable=0;points=[];fontSize=16;fontColor=#000000;labelBackgroundColor=none;" vertex="1" connectable="0" parent="39">
                    <mxGeometry x="-0.1133" y="-4" relative="1" as="geometry">
                        <mxPoint x="-4" y="20" as="offset"/>
                    </mxGeometry>
                </mxCell>
                <mxCell id="41" style="edgeStyle=none;html=1;entryX=1.005;entryY=0.55;entryDx=0;entryDy=0;entryPerimeter=0;labelBackgroundColor=#18141D;labelBorderColor=#000000;strokeColor=#18141D;fontSize=16;fontColor=#000000;" edge="1" parent="1" source="11" target="19">
                    <mxGeometry relative="1" as="geometry"/>
                </mxCell>
                <mxCell id="42" value="View Documentation" style="edgeLabel;html=1;align=center;verticalAlign=middle;resizable=0;points=[];fontSize=16;fontColor=#000000;labelBackgroundColor=none;" vertex="1" connectable="0" parent="41">
                    <mxGeometry x="-0.0913" y="-2" relative="1" as="geometry">
                        <mxPoint x="64" y="-23" as="offset"/>
                    </mxGeometry>
                </mxCell>
                <mxCell id="11" value="" style="aspect=fixed;html=1;points=[];align=center;image;fontSize=12;image=img/lib/azure2/other/Worker_Container_App.svg;" vertex="1" parent="1">
                    <mxGeometry x="740" y="400" width="103.03" height="100" as="geometry"/>
                </mxCell>
                <mxCell id="38" style="edgeStyle=none;html=1;labelBackgroundColor=#18141D;labelBorderColor=#000000;strokeColor=#18141D;fontSize=16;fontColor=#000000;" edge="1" parent="1" source="12">
                    <mxGeometry relative="1" as="geometry">
                        <mxPoint x="840" y="440" as="targetPoint"/>
                    </mxGeometry>
                </mxCell>
                <mxCell id="12" value="" style="aspect=fixed;html=1;points=[];align=center;image;fontSize=12;image=img/lib/azure2/networking/Front_Doors.svg;" vertex="1" parent="1">
                    <mxGeometry x="990" y="390" width="113.33" height="100" as="geometry"/>
                </mxCell>
                <mxCell id="15" value="&lt;font style=&quot;font-size: 16px;&quot;&gt;ADP Internal Documentation&lt;/font&gt;" style="text;html=1;strokeColor=none;fillColor=none;align=center;verticalAlign=middle;whiteSpace=wrap;rounded=0;fontColor=#000000;fontStyle=1;fontSize=20;" vertex="1" parent="1">
                    <mxGeometry x="60" y="668" width="100" height="30" as="geometry"/>
                </mxCell>
                <mxCell id="17" value="" style="edgeStyle=none;html=1;fontSize=16;fontColor=#000000;" edge="1" parent="1" source="16" target="10">
                    <mxGeometry relative="1" as="geometry"/>
                </mxCell>
                <mxCell id="16" value="&lt;font style=&quot;font-size: 16px;&quot;&gt;ADP External Documentation&lt;/font&gt;" style="text;html=1;strokeColor=none;fillColor=none;align=center;verticalAlign=middle;whiteSpace=wrap;rounded=0;fontColor=#000000;fontStyle=1;fontSize=20;" vertex="1" parent="1">
                    <mxGeometry x="60" y="500" width="100" height="30" as="geometry"/>
                </mxCell>
                <mxCell id="18" value="&lt;span style=&quot;font-size: 16px;&quot;&gt;Blob Storage&lt;/span&gt;" style="text;html=1;strokeColor=none;fillColor=none;align=center;verticalAlign=middle;whiteSpace=wrap;rounded=0;fontColor=#000000;fontStyle=1;fontSize=20;" vertex="1" parent="1">
                    <mxGeometry x="487.69" y="340" width="140.77" height="30" as="geometry"/>
                </mxCell>
                <mxCell id="19" value="" style="sketch=0;aspect=fixed;html=1;points=[];align=center;image;fontSize=12;image=img/lib/mscae/BlobBlock.svg;fontColor=#000000;" vertex="1" parent="1">
                    <mxGeometry x="499.71" y="240" width="119.05" height="100" as="geometry"/>
                </mxCell>
                <mxCell id="59" style="edgeStyle=none;html=1;entryX=0.5;entryY=0;entryDx=0;entryDy=0;labelBackgroundColor=#18141D;labelBorderColor=#000000;strokeColor=#18141D;fontSize=16;fontColor=#000000;" edge="1" parent="1" source="27" target="56">
                    <mxGeometry relative="1" as="geometry"/>
                </mxCell>
                <mxCell id="61" value="Text Embeddings" style="edgeLabel;html=1;align=center;verticalAlign=middle;resizable=0;points=[];fontSize=16;fontColor=#000000;labelBackgroundColor=none;" vertex="1" connectable="0" parent="59">
                    <mxGeometry x="-0.5766" y="2" relative="1" as="geometry">
                        <mxPoint x="-72" y="13" as="offset"/>
                    </mxGeometry>
                </mxCell>
                <mxCell id="27" value="&lt;span style=&quot;font-size: 16px;&quot;&gt;Azure AI Search&lt;/span&gt;" style="text;html=1;strokeColor=none;fillColor=none;align=center;verticalAlign=middle;whiteSpace=wrap;rounded=0;fontColor=#000000;fontStyle=1;fontSize=20;" vertex="1" parent="1">
                    <mxGeometry x="490" y="680" width="140.77" height="30" as="geometry"/>
                </mxCell>
                <mxCell id="28" value="&lt;span style=&quot;font-size: 16px;&quot;&gt;PostgreSQL&lt;/span&gt;" style="text;html=1;strokeColor=none;fillColor=none;align=center;verticalAlign=middle;whiteSpace=wrap;rounded=0;fontColor=#000000;fontStyle=1;fontSize=20;" vertex="1" parent="1">
                    <mxGeometry x="490" y="500" width="140.77" height="30" as="geometry"/>
                </mxCell>
                <mxCell id="36" style="edgeStyle=none;html=1;labelBackgroundColor=#18141D;labelBorderColor=#000000;strokeColor=#18141D;fontSize=16;fontColor=#000000;exitX=0.459;exitY=1.005;exitDx=0;exitDy=0;exitPerimeter=0;" edge="1" parent="1" source="29" target="8">
                    <mxGeometry relative="1" as="geometry">
                        <mxPoint x="740" y="680" as="sourcePoint"/>
                    </mxGeometry>
                </mxCell>
                <mxCell id="37" value="R&amp;amp;W Chat History" style="edgeLabel;html=1;align=center;verticalAlign=middle;resizable=0;points=[];fontSize=16;fontColor=#000000;labelBackgroundColor=none;" vertex="1" connectable="0" parent="36">
                    <mxGeometry x="-0.0897" y="2" relative="1" as="geometry">
                        <mxPoint x="74" y="5" as="offset"/>
                    </mxGeometry>
                </mxCell>
                <mxCell id="29" value="&lt;span style=&quot;font-size: 16px;&quot;&gt;ADP Portal API&lt;/span&gt;" style="text;html=1;strokeColor=none;fillColor=none;align=center;verticalAlign=middle;whiteSpace=wrap;rounded=0;fontColor=#000000;fontStyle=1;fontSize=20;" vertex="1" parent="1">
                    <mxGeometry x="721.13" y="690" width="140.77" height="30" as="geometry"/>
                </mxCell>
                <mxCell id="47" style="edgeStyle=none;html=1;labelBackgroundColor=#18141D;labelBorderColor=#000000;strokeColor=#18141D;fontSize=16;fontColor=#000000;entryX=0.5;entryY=-0.045;entryDx=0;entryDy=0;entryPerimeter=0;" edge="1" parent="1" source="30" target="3">
                    <mxGeometry relative="1" as="geometry">
                        <mxPoint x="800" y="590" as="targetPoint"/>
                    </mxGeometry>
                </mxCell>
                <mxCell id="30" value="&lt;span style=&quot;font-size: 16px;&quot;&gt;ADP Portal&lt;/span&gt;" style="text;html=1;strokeColor=none;fillColor=none;align=center;verticalAlign=middle;whiteSpace=wrap;rounded=0;fontColor=#000000;fontStyle=1;fontSize=20;" vertex="1" parent="1">
                    <mxGeometry x="745.57" y="510" width="91.9" height="30" as="geometry"/>
                </mxCell>
                <mxCell id="32" value="&lt;span style=&quot;font-size: 16px;&quot;&gt;Azure Pipeline&lt;/span&gt;" style="text;html=1;strokeColor=none;fillColor=none;align=center;verticalAlign=middle;whiteSpace=wrap;rounded=0;fontColor=#000000;fontStyle=1;fontSize=20;" vertex="1" parent="1">
                    <mxGeometry x="250" y="560" width="140.77" height="30" as="geometry"/>
                </mxCell>
                <mxCell id="44" style="edgeStyle=none;html=1;entryX=1.034;entryY=0.514;entryDx=0;entryDy=0;entryPerimeter=0;labelBackgroundColor=#18141D;labelBorderColor=#000000;strokeColor=#18141D;fontSize=16;fontColor=#000000;" edge="1" parent="1" source="43" target="12">
                    <mxGeometry relative="1" as="geometry"/>
                </mxCell>
                <mxCell id="43" value="" style="verticalLabelPosition=bottom;html=1;verticalAlign=top;align=center;strokeColor=none;fillColor=#00BEF2;shape=mxgraph.azure.user;labelBackgroundColor=none;fontSize=16;fontColor=#000000;" vertex="1" parent="1">
                    <mxGeometry x="1240" y="390" width="110" height="100" as="geometry"/>
                </mxCell>
                <mxCell id="45" value="&lt;span style=&quot;font-size: 16px;&quot;&gt;ADP User&lt;/span&gt;" style="text;html=1;strokeColor=none;fillColor=none;align=center;verticalAlign=middle;whiteSpace=wrap;rounded=0;fontColor=#000000;fontStyle=1;fontSize=20;" vertex="1" parent="1">
                    <mxGeometry x="1224.6100000000001" y="490" width="140.77" height="30" as="geometry"/>
                </mxCell>
                <mxCell id="46" value="&lt;span style=&quot;font-size: 16px;&quot;&gt;Front Door&lt;/span&gt;" style="text;html=1;strokeColor=none;fillColor=none;align=center;verticalAlign=middle;whiteSpace=wrap;rounded=0;fontColor=#000000;fontStyle=1;fontSize=20;" vertex="1" parent="1">
                    <mxGeometry x="976.28" y="490" width="140.77" height="30" as="geometry"/>
                </mxCell>
                <mxCell id="51" value="" style="group" vertex="1" connectable="0" parent="1">
                    <mxGeometry x="728.24" y="820" width="109.23000000000002" height="130" as="geometry"/>
                </mxCell>
                <mxCell id="8" value="" style="aspect=fixed;html=1;points=[];align=center;image;fontSize=12;image=img/lib/azure2/databases/Azure_Cosmos_DB.svg;" vertex="1" parent="51">
                    <mxGeometry x="9.230000000000018" width="100" height="100" as="geometry"/>
                </mxCell>
                <mxCell id="50" style="edgeStyle=none;html=1;labelBackgroundColor=#18141D;labelBorderColor=#000000;strokeColor=#18141D;fontSize=16;fontColor=#000000;" edge="1" parent="51" source="22" target="8">
                    <mxGeometry relative="1" as="geometry"/>
                </mxCell>
                <mxCell id="58" style="edgeStyle=none;html=1;labelBackgroundColor=#18141D;labelBorderColor=#000000;strokeColor=#18141D;fontSize=16;fontColor=#000000;" edge="1" parent="51" source="22" target="8">
                    <mxGeometry relative="1" as="geometry"/>
                </mxCell>
                <mxCell id="22" value="&lt;font style=&quot;font-size: 16px;&quot;&gt;Cosmos DB&lt;br&gt;&lt;/font&gt;" style="text;html=1;strokeColor=none;fillColor=none;align=center;verticalAlign=middle;whiteSpace=wrap;rounded=0;fontColor=#000000;fontStyle=1;fontSize=20;" vertex="1" parent="51">
                    <mxGeometry y="100" width="109.23" height="30" as="geometry"/>
                </mxCell>
                <mxCell id="56" value="" style="shape=image;verticalLabelPosition=bottom;labelBackgroundColor=default;verticalAlign=top;aspect=fixed;imageAspect=0;image=data:image/svg+xml,PHN2ZyB4bWxucz0iaHR0cDovL3d3dy53My5vcmcvMjAwMC9zdmciIHJvbGU9ImltZyIgdmlld0JveD0iMCAwIDI0IDI0IiBoZWlnaHQ9IjgwMHB4IiB3aWR0aD0iODAwcHgiIGZpbGw9IiMwMDAwMDAiPjx0aXRsZT5PcGVuQUkgaWNvbjwvdGl0bGU+PHBhdGggZD0iTTIyLjI4MTkgOS44MjExYTUuOTg0NyA1Ljk4NDcgMCAwIDAtLjUxNTctNC45MTA4IDYuMDQ2MiA2LjA0NjIgMCAwIDAtNi41MDk4LTIuOUE2LjA2NTEgNi4wNjUxIDAgMCAwIDQuOTgwNyA0LjE4MThhNS45ODQ3IDUuOTg0NyAwIDAgMC0zLjk5NzcgMi45IDYuMDQ2MiA2LjA0NjIgMCAwIDAgLjc0MjcgNy4wOTY2IDUuOTggNS45OCAwIDAgMCAuNTExIDQuOTEwNyA2LjA1MSA2LjA1MSAwIDAgMCA2LjUxNDYgMi45MDAxQTUuOTg0NyA1Ljk4NDcgMCAwIDAgMTMuMjU5OSAyNGE2LjA1NTcgNi4wNTU3IDAgMCAwIDUuNzcxOC00LjIwNTggNS45ODk0IDUuOTg5NCAwIDAgMCAzLjk5NzctMi45MDAxIDYuMDU1NyA2LjA1NTcgMCAwIDAtLjc0NzUtNy4wNzI5em0tOS4wMjIgMTIuNjA4MWE0LjQ3NTUgNC40NzU1IDAgMCAxLTIuODc2NC0xLjA0MDhsLjE0MTktLjA4MDQgNC43NzgzLTIuNzU4MmEuNzk0OC43OTQ4IDAgMCAwIC4zOTI3LS42ODEzdi02LjczNjlsMi4wMiAxLjE2ODZhLjA3MS4wNzEgMCAwIDEgLjAzOC4wNTJ2NS41ODI2YTQuNTA0IDQuNTA0IDAgMCAxLTQuNDk0NSA0LjQ5NDR6bS05LjY2MDctNC4xMjU0YTQuNDcwOCA0LjQ3MDggMCAwIDEtLjUzNDYtMy4wMTM3bC4xNDIuMDg1MiA0Ljc4MyAyLjc1ODJhLjc3MTIuNzcxMiAwIDAgMCAuNzgwNiAwbDUuODQyOC0zLjM2ODV2Mi4zMzI0YS4wODA0LjA4MDQgMCAwIDEtLjAzMzIuMDYxNUw5Ljc0IDE5Ljk1MDJhNC40OTkyIDQuNDk5MiAwIDAgMS02LjE0MDgtMS42NDY0ek0yLjM0MDggNy44OTU2YTQuNDg1IDQuNDg1IDAgMCAxIDIuMzY1NS0xLjk3MjhWMTEuNmEuNzY2NC43NjY0IDAgMCAwIC4zODc5LjY3NjVsNS44MTQ0IDMuMzU0My0yLjAyMDEgMS4xNjg1YS4wNzU3LjA3NTcgMCAwIDEtLjA3MSAwbC00LjgzMDMtMi43ODY1QTQuNTA0IDQuNTA0IDAgMCAxIDIuMzQwOCA3Ljg3MnptMTYuNTk2MyAzLjg1NThMMTMuMTAzOCA4LjM2NCAxNS4xMTkyIDcuMmEuMDc1Ny4wNzU3IDAgMCAxIC4wNzEgMGw0LjgzMDMgMi43OTEzYTQuNDk0NCA0LjQ5NDQgMCAwIDEtLjY3NjUgOC4xMDQydi01LjY3NzJhLjc5Ljc5IDAgMCAwLS40MDctLjY2N3ptMi4wMTA3LTMuMDIzMWwtLjE0Mi0uMDg1Mi00Ljc3MzUtMi43ODE4YS43NzU5Ljc3NTkgMCAwIDAtLjc4NTQgMEw5LjQwOSA5LjIyOTdWNi44OTc0YS4wNjYyLjA2NjIgMCAwIDEgLjAyODQtLjA2MTVsNC44MzAzLTIuNzg2NmE0LjQ5OTIgNC40OTkyIDAgMCAxIDYuNjgwMiA0LjY2ek04LjMwNjUgMTIuODYzbC0yLjAyLTEuMTYzOGEuMDgwNC4wODA0IDAgMCAxLS4wMzgtLjA1NjdWNi4wNzQyYTQuNDk5MiA0LjQ5OTIgMCAwIDEgNy4zNzU3LTMuNDUzN2wtLjE0Mi4wODA1TDguNzA0IDUuNDU5YS43OTQ4Ljc5NDggMCAwIDAtLjM5MjcuNjgxM3ptMS4wOTc2LTIuMzY1NGwyLjYwMi0xLjQ5OTggMi42MDY5IDEuNDk5OHYyLjk5OTRsLTIuNTk3NCAxLjQ5OTctMi42MDY3LTEuNDk5N1oiLz48L3N2Zz4=;" vertex="1" parent="1">
                    <mxGeometry x="510.39" y="790" width="100" height="100" as="geometry"/>
                </mxCell>
                <mxCell id="63" value="&lt;span style=&quot;font-size: 16px;&quot;&gt;Azure OpenAI&lt;/span&gt;" style="text;html=1;strokeColor=none;fillColor=none;align=center;verticalAlign=middle;whiteSpace=wrap;rounded=0;fontColor=#000000;fontStyle=1;fontSize=20;" vertex="1" parent="1">
                    <mxGeometry x="490" y="890" width="140.77" height="30" as="geometry"/>
                </mxCell>
            </root>
        </mxGraphModel>
    </diagram>
</mxfile>